<svg width="432" height="445" viewBox="0 0 432 445" fill="none" xmlns="http://www.w3.org/2000/svg">
<path d="M188.805 175.707C189.462 175.707 189.992 175.178 189.992 174.521V110.436C189.992 106.095 193.523 102.568 197.869 102.568H234.44C238.786 102.568 242.317 106.095 242.317 110.436V125.611C242.317 126.268 242.847 126.798 243.504 126.798C244.161 126.798 244.691 126.268 244.691 125.611V110.436C244.691 104.79 240.092 100.196 234.44 100.196H197.869C192.217 100.196 187.618 104.79 187.618 110.436V174.521C187.618 175.178 188.148 175.707 188.805 175.707Z" fill="#6A2EA0"/>
<path d="M297.925 254.857L335.938 221.209L306.95 202.571C297.799 217.983 293.516 226.911 293.516 226.911V182.445L309.047 156.168L314.185 165.95L339.801 145.713C339.801 145.713 362.511 155.543 371.045 175.977C384.423 208.011 379.269 273.867 379.269 273.867C343.6 269.36 293.516 281.174 293.516 281.174V254.288L297.925 254.857ZM320.668 71.2853C335.874 71.2853 346.173 84.9895 344.328 100.07C342.848 112.184 329.644 112.184 328.172 127.067V113.972C328.172 110.381 325.425 107.432 321.847 107.076C320.327 106.926 318.602 106.617 316.781 106.04C311.802 104.466 309.039 99.1602 310.512 94.1625L312.997 85.7407H284.896V83.3367C284.896 76.6784 290.302 71.2773 296.968 71.2773H320.668V71.2853ZM103.368 294.997C112.812 294.973 114.941 291.375 114.941 291.375C114.941 291.375 95.864 287.935 92.3177 285.215C91.352 283.096 85.5259 270.775 83.0244 265.477L122.256 245.202L141.468 282.226L108.577 299.22L103.368 294.997ZM66.781 273.867L82.882 296.349L94.8192 306.329L70.3194 318.989L51.1075 281.965L66.781 273.867ZM87.7028 122.441C68.7283 104.039 69.2824 71.4434 108.569 78.3944C115.337 79.5884 121.242 81.8896 125.937 84.254C126.261 80.996 128.066 76.9156 135.467 78.513C147.246 81.0593 156.207 101.817 156.207 101.817H136.441V92.0037C130.916 92.3358 110.643 94.4235 110.643 107.416C110.643 107.416 101.682 103.699 101.302 110.405C100.978 116.154 106.345 121.128 106.345 121.128L97.3364 152.997C97.3364 152.997 68.5621 145.057 59.4272 186.708C59.4272 186.708 50.3793 166.867 50.3793 151.352C50.3793 135.837 61.2003 118.099 87.7028 122.441ZM194.615 172.489C194.615 177.202 198.438 181.014 203.148 181.014C207.858 181.014 211.682 177.194 211.682 172.489C211.682 167.776 207.858 163.965 203.148 163.965C198.438 163.965 194.615 167.776 194.615 172.489ZM205.46 98.4406H211.769C211.785 98.4406 211.792 98.4248 211.785 98.4169C211.254 97.6261 210.938 96.6772 210.906 95.6571C210.827 92.5889 213.51 90.0584 216.566 90.3114C219.249 90.5328 221.363 92.7787 221.363 95.5227C221.363 96.5981 221.038 97.5945 220.484 98.4169C220.476 98.4248 220.484 98.4406 220.5 98.4406H226.199C228.218 98.4406 229.864 100.078 229.864 102.102C229.864 104.118 228.226 105.763 226.199 105.763H205.452C203.433 105.763 201.787 104.126 201.787 102.102C201.795 100.078 203.433 98.4406 205.46 98.4406ZM216.051 98.1322C217.611 98.1322 218.877 96.867 218.877 95.3092C218.877 93.7513 217.611 92.4861 216.051 92.4861C214.492 92.4861 213.225 93.7513 213.225 95.3092C213.225 96.8749 214.492 98.1322 216.051 98.1322ZM135.554 184.754C135.554 184.754 149.589 152.475 127.813 138.636C127.813 138.636 119.137 138.13 117.601 136.817V157.069C117.601 157.069 125.644 160.422 128.406 166.653C131.161 172.885 132.641 182.137 135.554 184.754Z" fill="url(#paint0_linear_1_23541)"/>
<path d="M74.9267 250.942C75.4333 250.942 75.9003 250.618 76.0586 250.112L93.4499 194.868C93.6478 194.244 93.2995 193.579 92.6741 193.382C92.0488 193.184 91.3838 193.532 91.1859 194.157L73.7947 249.4C73.5968 250.025 73.9451 250.689 74.5704 250.887C74.6892 250.927 74.8079 250.942 74.9267 250.942Z" fill="#6A2EA0"/>
<path d="M147.872 317.866C148.069 317.866 148.275 317.818 148.457 317.708C149.027 317.383 149.225 316.656 148.901 316.087C148.79 315.889 137.731 296.452 133.932 286.116C124.116 259.38 125.834 233.901 138.531 217.943C141.673 213.997 143.684 209.798 144.499 205.464C145.473 200.309 144.159 194.907 140.898 190.637C133.504 180.95 131.676 172.505 131.66 172.426C129.958 164.423 125.113 158.571 118.005 155.954C117.387 155.724 116.707 156.041 116.477 156.657C116.248 157.274 116.564 157.954 117.182 158.184C121.646 159.828 127.377 163.727 129.332 172.916C129.404 173.272 131.256 181.939 139.006 192.084C141.855 195.817 143.011 200.538 142.164 205.037C141.42 208.983 139.576 212.834 136.671 216.48C123.459 233.086 121.599 259.427 131.699 286.946C135.562 297.472 146.375 316.474 146.835 317.273C147.056 317.652 147.46 317.866 147.872 317.866Z" fill="#6A2EA0"/>
<path d="M212.568 242.181C214.088 242.181 214.967 241.888 215.062 241.849C215.442 241.714 215.727 241.398 215.814 241.002C215.909 240.615 215.798 240.204 215.513 239.911L207.051 231.062C206.893 230.896 206.726 230.73 206.552 230.572C202.951 227.164 197.679 226.057 192.794 227.686L177.58 232.762C174.279 232.478 150.721 224.855 135.396 219.691C134.771 219.477 134.098 219.817 133.892 220.434C133.686 221.059 134.019 221.731 134.636 221.937C138.65 223.289 173.978 235.135 177.746 235.135C177.873 235.135 178 235.111 178.126 235.072L193.546 229.924C197.599 228.571 201.953 229.473 204.922 232.28C205.064 232.415 205.199 232.549 205.333 232.691L212.109 239.777C209.782 239.666 205.682 238.678 200.402 234.249C199.903 233.83 199.151 233.893 198.731 234.391C198.312 234.89 198.375 235.641 198.874 236.06C205.009 241.224 209.829 242.181 212.568 242.181Z" fill="#6A2EA0"/>
<path d="M177.754 250.737C177.928 250.737 178.11 250.697 178.284 250.61L202.982 238.353C203.568 238.06 203.805 237.349 203.52 236.763C203.227 236.178 202.515 235.941 201.929 236.226L177.232 248.483C176.646 248.775 176.408 249.487 176.693 250.072C176.899 250.499 177.319 250.737 177.754 250.737Z" fill="#6A2EA0"/>
<path d="M184.229 255.22C184.411 255.22 184.586 255.181 184.76 255.094C189.398 252.777 200.908 247.447 201.019 247.391C201.613 247.115 201.874 246.411 201.597 245.818C201.32 245.225 200.615 244.964 200.022 245.241C199.903 245.296 188.369 250.634 183.699 252.966C183.113 253.259 182.876 253.971 183.169 254.556C183.382 254.983 183.794 255.22 184.229 255.22Z" fill="#6A2EA0"/>
<path d="M191.591 259.048C191.773 259.048 191.948 259.008 192.122 258.921L204.93 252.54C205.515 252.247 205.753 251.535 205.46 250.95C205.167 250.365 204.455 250.128 203.869 250.42L191.061 256.802C190.475 257.094 190.238 257.806 190.531 258.391C190.736 258.803 191.156 259.048 191.591 259.048Z" fill="#6A2EA0"/>
<path d="M126.705 248.491H182.251C182.908 248.491 183.438 247.961 183.438 247.304C183.438 246.648 182.908 246.118 182.251 246.118H126.705C126.048 246.118 125.517 246.648 125.517 247.304C125.517 247.961 126.048 248.491 126.705 248.491Z" fill="#6A2EA0"/>
<path d="M199.911 260.922C200.085 260.922 200.259 260.882 200.425 260.803L211.167 255.624C211.761 255.339 212.006 254.627 211.721 254.042C211.436 253.449 210.724 253.204 210.138 253.489L199.396 258.668C198.802 258.953 198.557 259.665 198.842 260.25C199.048 260.677 199.467 260.922 199.911 260.922Z" fill="#6A2EA0"/>
<path d="M207.819 262.804C208.159 262.804 216.202 262.685 224.957 252.239C229.619 246.68 239.665 248.451 239.767 248.467L297.767 256.035C298.108 256.074 298.456 255.972 298.709 255.742L336.674 222.039C337.165 221.604 337.212 220.853 336.769 220.363C336.334 219.872 335.582 219.825 335.091 220.268L297.53 253.607L240.124 246.118C239.72 246.039 228.685 244.078 223.12 250.705C215.133 260.226 207.866 260.424 207.795 260.424C207.138 260.432 206.616 260.961 206.616 261.618C206.639 262.282 207.162 262.804 207.819 262.804Z" fill="#6A2EA0"/>
<path d="M125.288 139.363C127.251 139.363 129.024 138.921 130.591 138.035C135.198 135.433 137.628 129.075 137.628 119.657V92.0036C137.628 91.3472 137.098 90.8174 136.441 90.8174C135.784 90.8174 135.254 91.3472 135.254 92.0036V119.657C135.254 128.166 133.235 133.812 129.42 135.963C125.897 137.956 120.617 136.959 114.166 133.092C113.604 132.752 112.875 132.934 112.535 133.496C112.195 134.057 112.377 134.785 112.939 135.125C117.649 137.948 121.773 139.363 125.288 139.363Z" fill="#6A2EA0"/>
<path d="M299.912 172.829C300.569 172.829 301.1 172.299 301.1 171.643V138.635C301.1 137.979 300.569 137.449 299.912 137.449C299.255 137.449 298.725 137.979 298.725 138.635V171.643C298.725 172.299 299.255 172.829 299.912 172.829Z" fill="#6A2EA0"/>
<path d="M328.18 137.821C328.837 137.821 329.368 137.291 329.368 136.635V123.943C329.368 123.287 328.837 122.757 328.18 122.757C327.523 122.757 326.993 123.287 326.993 123.943V136.627C326.993 137.291 327.523 137.821 328.18 137.821Z" fill="#6A2EA0"/>
<path d="M314.192 167.135C314.454 167.135 314.715 167.048 314.929 166.882L340.545 146.646C340.956 146.322 341.107 145.76 340.909 145.278L335.542 131.859C335.407 131.526 335.13 131.265 334.782 131.163C334.433 131.06 334.061 131.115 333.761 131.321L310.401 147.437C307.314 149.438 306.269 153.439 307.994 156.721L313.132 166.503C313.298 166.819 313.591 167.04 313.939 167.112C314.026 167.127 314.113 167.135 314.192 167.135ZM338.383 145.333L314.58 164.13L310.108 155.622C308.96 153.431 309.657 150.758 311.731 149.406L333.895 134.12L338.383 145.333Z" fill="#6A2EA0"/>
<path d="M293.524 228.089C293.991 228.089 294.434 227.812 294.624 227.353C297.506 220.395 302.065 212.337 308.177 203.401C308.549 202.863 308.406 202.12 307.868 201.756C307.33 201.384 306.585 201.527 306.221 202.064C300.015 211.135 295.376 219.343 292.432 226.452C292.178 227.061 292.471 227.749 293.073 228.002C293.215 228.065 293.374 228.089 293.524 228.089Z" fill="#6A2EA0"/>
<path d="M291.506 141.451C296.113 141.451 303.578 139.45 311.217 134.713C311.771 134.365 311.945 133.638 311.597 133.076C311.248 132.515 310.52 132.349 309.958 132.697C302.026 137.623 294.443 139.426 290.429 139.031C287.912 138.137 283.408 115.964 286.091 85.8509C286.147 85.1946 285.664 84.6252 285.015 84.5619C284.374 84.5066 283.788 84.989 283.725 85.6374C282.537 99.0095 282.616 112.595 283.954 123.903C284.88 131.692 286.709 141.039 290.192 141.387C290.604 141.427 291.039 141.451 291.506 141.451Z" fill="#6A2EA0"/>
<path d="M284.088 118.526C284.745 118.526 285.276 117.996 285.276 117.34C285.276 116.684 284.745 116.154 284.088 116.154C283.297 116.154 282.592 115.774 282.157 115.118C281.722 114.462 281.642 113.663 281.951 112.935L285.189 105.233C285.442 104.632 285.157 103.936 284.555 103.683C283.954 103.43 283.257 103.715 283.004 104.316L279.766 112.018C279.157 113.473 279.315 115.118 280.186 116.431C281.049 117.743 282.505 118.526 284.088 118.526Z" fill="#6A2EA0"/>
<path d="M285.751 129.376C285.775 129.376 285.79 129.376 285.814 129.376C293.69 128.957 296.976 124.014 297.11 123.809C297.466 123.255 297.308 122.528 296.754 122.172C296.208 121.816 295.471 121.974 295.115 122.52C294.997 122.702 292.289 126.663 285.68 127.011C285.022 127.043 284.524 127.604 284.555 128.261C284.603 128.886 285.125 129.376 285.751 129.376Z" fill="#6A2EA0"/>
<path d="M328.18 128.26C328.734 128.26 329.217 127.873 329.336 127.327C331.331 118.123 335.225 114.691 338.661 111.662C341.803 108.894 344.764 106.285 345.508 100.219C346.141 95.0556 345.413 89.8839 343.41 85.2737C343.149 84.6727 342.452 84.3959 341.851 84.6569C341.249 84.9178 340.972 85.6137 341.233 86.2147C343.07 90.4454 343.735 95.1822 343.149 99.9268C342.516 105.099 340.125 107.21 337.093 109.875C334.584 112.089 331.631 114.683 329.36 119.594V113.971C329.36 113.315 328.829 112.785 328.172 112.785C327.515 112.785 326.985 113.315 326.985 113.971V127.066C326.985 127.675 327.444 128.181 328.045 128.245C328.101 128.253 328.14 128.26 328.18 128.26Z" fill="#6A2EA0"/>
<path d="M284.912 86.9265H313.013C313.67 86.9265 314.201 86.3967 314.201 85.7404C314.201 85.084 313.67 84.5542 313.013 84.5542H286.099V83.3364C286.099 77.3423 290.983 72.4632 296.984 72.4632H307.322C307.979 72.4632 308.509 71.9333 308.509 71.277C308.509 70.6206 307.979 70.0908 307.322 70.0908H296.984C289.677 70.0908 283.724 76.0296 283.724 83.3364V85.7404C283.724 86.3967 284.255 86.9265 284.912 86.9265Z" fill="#6A2EA0"/>
<path d="M339.255 224.53C339.643 224.53 340.031 224.34 340.252 223.985C340.608 223.431 340.45 222.704 339.896 222.348L305.24 200.064C304.686 199.708 303.958 199.866 303.602 200.419C303.245 200.973 303.404 201.708 303.958 202.056L338.614 224.34C338.811 224.467 339.033 224.53 339.255 224.53Z" fill="#6A2EA0"/>
<path d="M344.416 217.468C344.804 217.468 345.192 217.278 345.413 216.923C345.77 216.369 345.611 215.642 345.057 215.286L310.401 193.002C309.847 192.646 309.119 192.804 308.763 193.357C308.406 193.911 308.565 194.638 309.119 194.994L343.775 217.278C343.973 217.413 344.194 217.468 344.416 217.468Z" fill="#6A2EA0"/>
<path d="M227.909 234.439C227.996 234.439 228.076 234.431 228.163 234.415C252.053 229.235 280.028 228.294 290.944 228.128C294.07 228.081 295.907 228.097 295.923 228.097H295.931C296.58 228.097 297.11 227.575 297.118 226.918C297.126 226.262 296.596 225.724 295.939 225.724C295.923 225.724 294.063 225.708 290.904 225.756C279.972 225.922 252.061 226.863 228.044 232.011C216.756 226.744 202.919 227.93 202.333 227.986C201.684 228.049 201.201 228.618 201.256 229.275C201.312 229.931 201.898 230.406 202.547 230.35C202.689 230.334 216.629 229.14 227.387 234.32C227.561 234.399 227.735 234.439 227.909 234.439Z" fill="#6A2EA0"/>
<path d="M110.643 108.602C110.675 108.602 110.698 108.602 110.73 108.602C111.379 108.554 111.878 107.993 111.83 107.345C111.823 107.178 111.672 103.723 114.973 100.251C118.084 96.9774 125.01 93.1026 140.13 93.1975H140.138C140.787 93.1975 141.317 92.6676 141.325 92.0192C141.333 91.3629 140.803 90.833 140.146 90.8251C127.235 90.754 118.163 93.3873 113.176 98.6934C109.187 102.948 109.44 107.321 109.456 107.511C109.503 108.127 110.026 108.602 110.643 108.602Z" fill="#6A2EA0"/>
<path d="M137.945 123.231C139.117 123.231 140.003 122.836 140.589 122.037C141.151 121.278 142.592 118.139 137.47 109.377C137.138 108.815 136.409 108.618 135.847 108.95C135.277 109.282 135.087 110.009 135.42 110.571C137.7 114.477 139.56 119.443 138.689 120.614C138.483 120.891 137.795 120.922 136.861 120.701C136.219 120.551 135.578 120.938 135.428 121.571C135.277 122.211 135.665 122.852 136.299 123.002C136.892 123.16 137.446 123.231 137.945 123.231Z" fill="#6A2EA0"/>
<path d="M134.993 131.448C135.61 131.448 136.125 130.973 136.172 130.348C136.22 129.7 135.737 129.131 135.08 129.075C134.913 129.059 131.494 128.719 128.715 125.414C128.296 124.916 127.544 124.845 127.045 125.272C126.546 125.691 126.475 126.442 126.903 126.94C130.362 131.052 134.723 131.432 134.906 131.448C134.937 131.448 134.961 131.448 134.993 131.448Z" fill="#6A2EA0"/>
<path d="M54.5667 231.822H80.4991C81.1562 231.822 81.6865 231.292 81.6865 230.635C81.6865 229.979 81.1562 229.449 80.4991 229.449H54.5667C53.9096 229.449 53.3793 229.979 53.3793 230.635C53.3793 231.292 53.9176 231.822 54.5667 231.822Z" fill="#6A2EA0"/>
<path d="M112.179 309.602C112.519 309.602 112.86 309.452 113.097 309.167C113.517 308.661 113.445 307.918 112.939 307.499L98.2865 295.431C97.7799 295.012 97.0358 295.083 96.6163 295.59C96.1967 296.096 96.2679 296.839 96.7746 297.258L111.427 309.325C111.649 309.515 111.918 309.602 112.179 309.602Z" fill="#6A2EA0"/>
<path d="M113.556 304.573C113.897 304.573 114.237 304.422 114.475 304.138C114.894 303.632 114.823 302.888 114.316 302.469L102.324 292.6C101.817 292.181 101.073 292.252 100.653 292.759C100.234 293.265 100.305 294.008 100.812 294.427L112.796 304.304C113.026 304.486 113.287 304.573 113.556 304.573Z" fill="#6A2EA0"/>
<path d="M105.142 310.243C105.482 310.243 105.823 310.092 106.06 309.808C106.48 309.302 106.408 308.558 105.902 308.139L93.9329 298.278C93.4262 297.859 92.6822 297.93 92.2626 298.436C91.8431 298.942 91.9143 299.686 92.4209 300.105L104.39 309.966C104.611 310.156 104.881 310.243 105.142 310.243Z" fill="#6A2EA0"/>
<path d="M97.5265 309.602C97.8669 309.602 98.2073 309.452 98.4448 309.167C98.8643 308.661 98.7931 307.918 98.2865 307.499L83.7529 295.526L54.4403 254.596C54.464 221.636 58.0262 198.569 61.0105 184.999C63.5832 173.311 69.1005 166.242 69.156 166.171C69.5597 165.657 69.4726 164.913 68.966 164.502C68.4514 164.099 67.7073 164.178 67.2957 164.692C67.0582 164.992 61.3905 172.228 58.6911 184.485C55.6673 198.221 52.0655 221.596 52.0655 254.967C52.0655 255.212 52.1447 255.458 52.2872 255.655L81.9085 297.021C81.9718 297.108 82.043 297.179 82.1222 297.242L96.7745 309.31C96.9962 309.515 97.2653 309.602 97.5265 309.602Z" fill="#6A2EA0"/>
<path d="M114.941 292.561C115.567 292.561 116.089 292.07 116.129 291.438C116.168 290.781 115.662 290.22 115.013 290.188C107.777 289.785 95.6582 285.238 93.2042 284.289C91.6606 280.897 81.6153 258.889 75.9555 249.163C75.623 248.593 74.9027 248.404 74.3327 248.736C73.7628 249.068 73.5728 249.787 73.9053 250.357C79.953 260.756 91.1303 285.46 91.2411 285.705C91.3677 285.981 91.5973 286.203 91.8823 286.321C92.476 286.559 106.455 292.086 114.886 292.561C114.902 292.561 114.925 292.561 114.941 292.561Z" fill="#6A2EA0"/>
<path d="M206.505 126.98H229.659C230.316 126.98 230.846 126.45 230.846 125.794C230.846 125.137 230.316 124.607 229.659 124.607H206.505C205.848 124.607 205.317 125.137 205.317 125.794C205.317 126.45 205.848 126.98 206.505 126.98Z" fill="#6A2EA0"/>
<path d="M198.787 136.311H229.659C230.316 136.311 230.846 135.781 230.846 135.125C230.846 134.468 230.316 133.938 229.659 133.938H198.787C198.13 133.938 197.599 134.468 197.599 135.125C197.599 135.781 198.13 136.311 198.787 136.311Z" fill="#6A2EA0"/>
<path d="M206.505 146.655H229.659C230.316 146.655 230.846 146.125 230.846 145.468C230.846 144.812 230.316 144.282 229.659 144.282H206.505C205.848 144.282 205.317 144.812 205.317 145.468C205.317 146.125 205.848 146.655 206.505 146.655Z" fill="#6A2EA0"/>
<path d="M216.155 175.707H235.208C244.581 175.707 244.691 166.534 244.691 166.439V144.614C244.691 143.958 244.161 143.428 243.504 143.428C242.847 143.428 242.317 143.958 242.317 144.614V166.439C242.317 166.455 242.293 168.266 241.375 170.006C240.211 172.212 238.137 173.335 235.208 173.335H216.155C215.498 173.335 214.967 173.865 214.967 174.521C214.967 175.178 215.505 175.707 216.155 175.707Z" fill="#6A2EA0"/>
<path d="M293.524 228.097C294.181 228.097 294.711 227.567 294.711 226.91V182.769L310.084 156.768C310.417 156.207 310.227 155.479 309.665 155.147C309.103 154.815 308.374 155.005 308.042 155.566L292.511 181.844C292.4 182.026 292.345 182.231 292.345 182.445V226.91C292.337 227.567 292.867 228.097 293.524 228.097Z" fill="#6A2EA0"/>
<path d="M293.525 282.842C294.182 282.842 294.712 282.312 294.712 281.656V254.674C294.712 254.018 294.182 253.488 293.525 253.488C292.868 253.488 292.337 254.018 292.337 254.674V281.656C292.337 282.304 292.868 282.842 293.525 282.842Z" fill="#6A2EA0"/>
<path d="M378.874 211.846C379.531 211.846 380.061 211.316 380.061 210.66C380.061 210.13 380.006 197.572 375.114 183.077C368.607 163.774 356.535 150.473 340.212 144.598C339.595 144.377 338.914 144.693 338.693 145.31C338.471 145.926 338.788 146.607 339.405 146.828C377.219 160.421 377.678 210.154 377.678 210.652C377.686 211.316 378.217 211.846 378.874 211.846Z" fill="#6A2EA0"/>
<path d="M341.819 314.6C344.724 314.6 347.629 313.525 349.886 311.374C350.36 310.923 350.376 310.172 349.925 309.697C349.474 309.223 348.722 309.207 348.247 309.658C346.45 311.374 344.091 312.291 341.605 312.236C339.12 312.18 336.808 311.16 335.091 309.365C330.626 304.7 323.217 304.533 318.562 308.978C316.765 310.694 314.399 311.603 311.921 311.556C309.435 311.5 307.124 310.48 305.406 308.685C303.229 306.408 300.324 305.134 297.205 305.063C294.078 305 291.126 306.139 288.87 308.298L288.434 308.717C286.637 310.433 284.279 311.366 281.793 311.295C279.307 311.239 276.996 310.219 275.278 308.424L274.02 307.103C271.866 304.85 268.961 303.569 265.834 303.505C262.716 303.442 259.755 304.581 257.499 306.74L256.842 307.372C255.045 309.088 252.694 309.998 250.201 309.95C247.715 309.895 245.404 308.875 243.686 307.08C243.235 306.605 242.483 306.589 242.008 307.04C241.533 307.491 241.517 308.242 241.968 308.717C244.121 310.97 247.026 312.251 250.153 312.315C253.28 312.378 256.232 311.239 258.489 309.08L259.146 308.448C260.942 306.732 263.293 305.822 265.787 305.87C268.273 305.925 270.584 306.945 272.302 308.74L273.56 310.061C275.714 312.315 278.619 313.596 281.745 313.659C284.88 313.722 287.825 312.584 290.081 310.425L290.516 310.006C292.313 308.29 294.664 307.364 297.158 307.428C299.643 307.483 301.955 308.503 303.672 310.298C305.849 312.576 308.754 313.849 311.873 313.92C315 313.991 317.953 312.845 320.209 310.686C323.921 307.143 329.819 307.277 333.365 310.978C335.653 313.398 338.732 314.6 341.819 314.6Z" fill="#6A2EA0"/>
<path d="M117.593 167.839C117.902 167.839 118.195 167.721 118.417 167.507C118.654 167.286 118.781 166.977 118.781 166.653V136.24C118.781 135.584 118.25 135.054 117.593 135.054C116.936 135.054 116.406 135.584 116.406 136.24V165.372C113.065 165.048 103.796 163.727 98.8643 158.935C98.3973 158.477 97.6453 158.485 97.1862 158.959C96.727 159.426 96.735 160.177 97.2099 160.635C103.915 167.159 116.984 167.816 117.538 167.847C117.562 167.839 117.578 167.839 117.593 167.839Z" fill="#6A2EA0"/>
<path d="M95.9354 218.315C96.1016 218.315 96.2758 218.283 96.4341 218.204C108.292 212.716 116.992 216.749 117.079 216.797C117.672 217.081 118.377 216.836 118.662 216.243C118.947 215.658 118.702 214.946 118.116 214.662C117.728 214.472 108.371 210.067 95.4367 216.053C94.843 216.33 94.5818 217.034 94.8588 217.627C95.0646 218.062 95.4921 218.315 95.9354 218.315Z" fill="#6A2EA0"/>
<path d="M249.464 360.212H303.11C303.767 360.212 304.298 359.682 304.298 359.026C304.298 358.37 303.767 357.84 303.11 357.84H249.464C248.807 357.84 248.277 358.37 248.277 359.026C248.277 359.682 248.807 360.212 249.464 360.212Z" fill="#6A2EA0"/>
<path d="M196.159 360.212H237.844C238.501 360.212 239.031 359.682 239.031 359.026C239.031 358.37 238.501 357.84 237.844 357.84H196.159C192.969 357.84 190.372 355.246 190.372 352.059C190.372 348.872 192.969 346.279 196.159 346.279H303.11C303.767 346.279 304.298 345.749 304.298 345.092C304.298 344.436 303.767 343.906 303.11 343.906H196.159C191.662 343.906 187.997 347.56 187.997 352.059C187.997 356.559 191.655 360.212 196.159 360.212Z" fill="#6A2EA0"/>
<path d="M302.327 360.212C306.823 360.212 310.488 356.559 310.488 352.059C310.488 347.56 306.831 343.906 302.327 343.906C297.831 343.906 294.166 347.56 294.166 352.059C294.166 356.559 297.823 360.212 302.327 360.212ZM302.327 346.287C305.517 346.287 308.114 348.88 308.114 352.067C308.114 355.254 305.517 357.848 302.327 357.848C299.137 357.848 296.54 355.254 296.54 352.067C296.54 348.88 299.137 346.287 302.327 346.287Z" fill="#6A2EA0"/>
<path d="M237.844 378.954C238.105 378.954 238.374 378.867 238.588 378.693L243.654 374.636L248.72 378.693C249.077 378.977 249.567 379.033 249.979 378.835C250.391 378.637 250.652 378.218 250.652 377.767V345.092C250.652 344.436 250.121 343.906 249.464 343.906H237.844C237.187 343.906 236.657 344.436 236.657 345.092V377.767C236.657 378.226 236.918 378.637 237.329 378.835C237.496 378.922 237.67 378.954 237.844 378.954ZM243.654 371.931C243.393 371.931 243.132 372.018 242.91 372.192L239.031 375.3V346.287H248.277V375.3L244.398 372.192C244.177 372.018 243.915 371.931 243.654 371.931Z" fill="#6A2EA0"/>
<path d="M64.177 323.085C64.3591 323.085 64.5491 323.045 64.7232 322.951C65.309 322.65 65.5306 321.93 65.2298 321.353L46.0179 284.329C45.7171 283.752 44.9968 283.522 44.4189 283.823C43.8331 284.123 43.6115 284.843 43.9123 285.42L63.1242 322.444C63.33 322.856 63.7495 323.085 64.177 323.085Z" fill="#6A2EA0"/>
<path d="M168.453 357.081C165.677 357.081 163.426 354.833 163.426 352.06C163.426 349.286 165.677 347.038 168.453 347.038C171.229 347.038 173.479 349.286 173.479 352.06C173.479 354.833 171.229 357.081 168.453 357.081Z" fill="#0061FF"/>
<defs>
<linearGradient id="paint0_linear_1_23541" x1="84.5683" y1="79.4881" x2="328.963" y2="324.133" gradientUnits="userSpaceOnUse">
<stop stop-color="#FF4C84"/>
<stop offset="0.6233" stop-color="#8D78D3"/>
<stop offset="1" stop-color="#4C90FF"/>
</linearGradient>
</defs>
</svg>
