<svg xmlns="http://www.w3.org/2000/svg" preserveAspectRatio="xMidYMid" width="270" height="71.062" viewBox="0 0 270 71.062"><path d="M267.628 48.848V45.54h-.068c-2.032 3.1-5.28 3.754-7.208 3.754-5.82 0-9.948-4.512-9.948-9.92 0-5.03 3.892-9.854 9.948-9.854 1.996 0 5.244.655 7.208 3.79h.068V30h2.367v18.85h-2.367zm-7.276-17.158c-4.06 0-7.58 2.998-7.58 7.786 0 4.204 3.047 7.65 7.58 7.65 3.993 0 7.41-3.273 7.41-7.685 0-4.133-3.145-7.75-7.41-7.75zM245.61 48.848h-2.368V32.17h-2.877V30h2.877c.068-2.615.27-7.027 7.104-7.095v2.238c-4.805 0-4.736 3.1-4.736 4.858h4.736v2.17h-4.736V48.85zm-16.974.447c-5.417 0-9.645-4.65-9.645-9.75 0-5.96 4.773-10.026 9.646-10.026 5.48 0 9.71 4.718 9.71 9.887 0 5.133-4.163 9.888-9.71 9.888zm.033-17.606c-3.385 0-7.31 2.826-7.31 7.82 0 4.376 3.484 7.616 7.31 7.616 3.585 0 7.306-2.895 7.306-7.822 0-4.96-4.127-7.615-7.307-7.615zm-15.826 17.158h-2.37V32.17h-3.89V30h3.89v-6.65h2.37V30h4.432v2.17h-4.432v16.68zm-7.542-5.375c.033 3.24-1.895 5.822-5.82 5.822-2.57 0-5.786-1.792-5.685-6.03h2.37c.066 3.584 2.47 3.86 3.314 3.86 2.236 0 3.453-1.342 3.453-3.376 0-2.585-2.3-3.17-3.688-3.757-1.895-.654-4.906-1.688-4.906-5.236 0-2.653 1.86-5.238 5.276-5.238 2.776 0 5.076 2.17 5.042 5.132h-2.367c-.168-2.308-1.725-2.963-2.775-2.963-1.895 0-2.808 1.55-2.808 2.826 0 1.997 1.963 2.686 3.316 3.134 2.165.723 5.28 1.93 5.28 5.823zm-13.125 0c.033 3.24-1.895 5.822-5.82 5.822-2.57 0-5.786-1.792-5.685-6.03h2.37c.066 3.584 2.47 3.86 3.314 3.86 2.235 0 3.452-1.342 3.452-3.376 0-2.585-2.3-3.17-3.688-3.757-1.895-.654-4.906-1.688-4.906-5.236 0-2.653 1.86-5.238 5.277-5.238 2.777 0 5.077 2.17 5.043 5.132h-2.367c-.17-2.308-1.726-2.963-2.776-2.963-1.895 0-2.808 1.55-2.808 2.826 0 1.997 1.963 2.686 3.316 3.134 2.165.723 5.28 1.93 5.28 5.823zM175.307 30h2.366v18.85h-2.366V30zm0-6.65h2.366v4.343h-2.366V23.35zm-6.927 25.5h-2.37V32.17h-3.89V30h3.89v-6.65h2.37V30h4.432v2.17h-4.432v16.68zm-11.46 0h-2.368V32.17h-3.89V30h3.89v-6.65h2.37V30h4.43v2.17h-4.43v16.68zm-17.82-1.722c3.385-.07 5.788-2.102 6.633-4.447h2.504c-1.285 3.756-4.838 6.616-9.1 6.616-5.18 0-9.645-4.272-9.645-9.854 0-5.34 4.23-9.82 9.61-9.922 4.06.035 6.935 2.48 8.256 4.823 1.252 2.034 1.522 4.134 1.42 5.96h-16.85c.168 3.687 3.552 6.823 7.173 6.823zm7.277-8.994c-.745-4.445-4.298-6.442-7.24-6.442-2.912 0-6.532 1.997-7.21 6.442h14.45zm-10.862-12.61l6.733-3.755 1.083 2.067-6.7 3.686-1.115-1.997zM123.88 33.93c-.81 1.033-1.284 2.377-1.284 3.893v11.025h-2.37V30h2.37v2.723h.068c1.116-2.653 3.213-3.066 5.21-3.203v2.548c-1.657.138-3.08.758-3.993 1.86zm-10.38 4.547c0-2.445-.743-4.17-1.758-5.167-1.287-1.277-2.978-1.62-4.027-1.62-1.048 0-2.74.343-4.026 1.62-1.015.998-1.762 2.722-1.727 5.167v10.37h-2.37V30.002h2.37v2.413h.068c.71-1.136 2.538-2.893 5.685-2.893 2.268 0 4.16.585 5.854 2.307 1.387 1.38 2.3 3.55 2.3 6.65v10.37h-2.37v-10.37zm-20.83 10.37H90.3V32.172h-2.876V30H90.3c.067-2.615.27-7.027 7.107-7.095v2.238c-4.805 0-4.74 3.1-4.74 4.858h4.74v2.17h-4.74V48.85zM82.32 45.54h-.067c-2.03 3.1-5.28 3.754-7.207 3.754-5.82 0-9.948-4.512-9.948-9.92 0-5.03 3.89-9.854 9.948-9.854 1.996 0 5.244.655 7.207 3.79h.068V30h2.37v18.85h-2.37v-3.31zm-7.274-13.85c-4.06 0-7.58 2.998-7.58 7.786 0 4.204 3.047 7.65 7.58 7.65 3.994 0 7.41-3.273 7.41-7.685 0-4.133-3.146-7.75-7.41-7.75zM55.06 49.296c-3.045 0-6.565-1.964-6.8-6.512h2.47c.203 2.756 2.233 4.202 4.364 4.202 4.095-.033 4.06-3.925 4.06-6.234v-17.4h2.504v17.4c-.033 2.067-.068 3.27-.642 4.857-1.084 2.307-3.248 3.686-5.957 3.686zM.46 59.644c-2.81-16.647 19.912-21.734 22.42-6.875 1.99 11.78-13.945 13.9-15.506 4.654-.547-3.235 4.3-4.056 4.848-.82.462 2.742 6.732 2.446 5.81-3.014-1.423-8.434-14.448-4.975-12.726 5.23 1.625 9.622 21.036 11.666 20.736-5.51-.255-14.716-.79-17.938-14.027-23.69 12.1.78 18.658 7.287 18.943 23.604.406 23.263-27.876 21.95-30.498 6.42zm7.62-41.35c-1.985-11.78 13.95-13.9 15.51-4.657.547 3.237-4.3 4.058-4.846.82-.462-2.74-6.733-2.444-5.812 3.016 1.424 8.434 14.45 4.975 12.725-5.23C24.032 2.62 4.622.576 4.92 17.752c.258 14.714.79 17.936 14.027 23.688C6.85 40.663.29 34.157.007 17.84-.4-5.425 27.88-4.115 30.503 11.42c2.81 16.644-19.913 21.73-22.42 6.874z" fill="#f49500" fill-rule="evenodd"></path></svg>
