<svg width="149" height="191" viewBox="0 0 149 191" fill="none" xmlns="http://www.w3.org/2000/svg">
<path d="M97.3445 12.8242H20.7281C16.3758 12.8242 12.8516 16.3484 12.8516 20.7007C12.8516 25.0529 16.3758 28.5772 20.7281 28.5772H97.3513C101.704 28.5772 105.228 25.0529 105.228 20.7007C105.221 16.3484 101.697 12.8242 97.3445 12.8242ZM148.668 134.127C148.668 138.718 144.946 142.441 140.354 142.441V168.247H79.648V134.127L109.799 156.23L140.381 134.127C140.32 133.709 132.039 134.558 132.039 134.127C132.039 129.535 135.762 125.812 140.354 125.812C144.946 125.812 148.668 129.535 148.668 134.127Z" fill="url(#paint0_linear_3863_10486)"/>
<path d="M14.9936 190.542C17.4842 190.542 19.5032 188.523 19.5032 186.032C19.5032 183.542 17.4842 181.523 14.9936 181.523C12.5029 181.523 10.4839 183.542 10.4839 186.032C10.4839 188.523 12.5029 190.542 14.9936 190.542Z" fill="#0061FF"/>
<path d="M120.68 57.784C123.17 57.784 125.189 55.7649 125.189 53.2743C125.189 50.7837 123.17 48.7646 120.68 48.7646C118.189 48.7646 116.17 50.7837 116.17 53.2743C116.17 55.7649 118.189 57.784 120.68 57.784Z" fill="#0061FF"/>
<path d="M13.6251 159.412C13.0571 159.412 12.5986 158.954 12.5986 158.386C12.5986 141.983 17.6079 129.494 27.4826 121.261C36.9536 113.371 50.9616 109.368 69.1166 109.368H69.9446C81.359 109.368 93.1567 109.375 102.244 105.351C112.427 100.841 117.382 91.7261 117.382 77.4855C117.382 76.9175 117.84 76.459 118.408 76.459C118.976 76.459 119.435 76.9175 119.435 77.4855C119.435 92.6226 114.083 102.354 103.079 107.226C93.5947 111.428 81.578 111.421 69.9514 111.421H69.1234C32.9845 111.421 14.6584 127.222 14.6584 158.386C14.6516 158.947 14.1931 159.412 13.6251 159.412Z" fill="#6A2EA0"/>
<path d="M46.8143 86.9154H14.2749C6.40523 86.9154 0 80.517 0 72.6405V14.2749C0 6.40523 6.40523 0 14.2749 0H105.064C112.933 0 119.338 6.40523 119.338 14.2749V21.7956C119.338 22.3636 118.88 22.8221 118.312 22.8221C117.744 22.8221 117.285 22.3636 117.285 21.7956V14.2749C117.285 7.53436 111.804 2.05296 105.064 2.05296H14.2749C7.53436 2.05296 2.05296 7.53436 2.05296 14.2749V72.6405C2.05296 79.3811 7.53436 84.8624 14.2749 84.8624H46.8143C47.3823 84.8624 47.8408 85.3209 47.8408 85.8889C47.8408 86.4569 47.3823 86.9154 46.8143 86.9154Z" fill="#6A2EA0"/>
<path d="M25.6073 64.9761C19.5921 64.9761 14.6992 60.0833 14.6992 54.0681C14.6992 48.0529 19.5921 43.16 25.6073 43.16C31.6224 43.16 36.5153 48.0529 36.5153 54.0681C36.5153 60.0833 31.6224 64.9761 25.6073 64.9761ZM25.6073 45.2061C20.7212 45.2061 16.7522 49.182 16.7522 54.0612C16.7522 58.9473 20.7281 62.9163 25.6073 62.9163C30.4933 62.9163 34.4624 58.9404 34.4624 54.0612C34.4624 49.182 30.4933 45.2061 25.6073 45.2061Z" fill="#6A2EA0"/>
<path d="M58.4955 64.9761C52.4803 64.9761 47.5874 60.0833 47.5874 54.0681C47.5874 48.0529 52.4803 43.16 58.4955 43.16C64.5106 43.16 69.4035 48.0529 69.4035 54.0681C69.4035 60.0833 64.5106 64.9761 58.4955 64.9761ZM58.4955 45.2061C53.6094 45.2061 49.6404 49.182 49.6404 54.0612C49.6404 58.9473 53.6163 62.9163 58.4955 62.9163C63.3747 62.9163 67.3505 58.9404 67.3505 54.0612C67.3505 49.182 63.3747 45.2061 58.4955 45.2061Z" fill="#6A2EA0"/>
<path d="M16.7863 64.4423C16.5263 64.4423 16.2663 64.3465 16.0678 64.1481C15.664 63.7512 15.6572 63.1011 16.0473 62.6973L34.2091 44.1112C34.606 43.7075 35.2561 43.7006 35.6599 44.0975C36.0636 44.4944 36.0705 45.1445 35.6804 45.5483L17.5186 64.1344C17.3201 64.3397 17.0532 64.4423 16.7863 64.4423Z" fill="#6A2EA0"/>
<path d="M49.7634 64.4423C49.5033 64.4423 49.2433 64.3465 49.0448 64.1481C48.6411 63.7512 48.6343 63.1011 49.0243 62.6973L67.1862 44.1112C67.5831 43.7075 68.2332 43.7006 68.6369 44.0975C69.0407 44.4944 69.0475 45.1445 68.6574 45.5483L50.4956 64.1344C50.2972 64.3397 50.0303 64.4423 49.7634 64.4423Z" fill="#6A2EA0"/>
<path d="M82.7409 64.4423C82.4809 64.4423 82.2208 64.3465 82.0224 64.1481C81.6186 63.7512 81.6118 63.1011 82.0019 62.6973L100.164 44.1112C100.561 43.7075 101.211 43.7006 101.614 44.0975C102.018 44.4944 102.025 45.1445 101.635 45.5483L83.4731 64.1344C83.2747 64.3397 83.0078 64.4423 82.7409 64.4423Z" fill="#6A2EA0"/>
<path d="M100.903 64.4423C100.636 64.4423 100.369 64.3397 100.171 64.1344L82.0089 45.5483C81.612 45.1445 81.6189 44.4944 82.0295 44.0975C82.4332 43.7006 83.0833 43.7075 83.4802 44.1112L101.642 62.6973C102.039 63.1011 102.032 63.7512 101.622 64.1481C101.416 64.3465 101.163 64.4423 100.903 64.4423Z" fill="#6A2EA0"/>
<path d="M140.388 170.074H79.2164C78.6484 170.074 78.1899 169.615 78.1899 169.047V134.127C78.1899 133.559 78.6484 133.1 79.2164 133.1H140.388C140.956 133.1 141.414 133.559 141.414 134.127V169.047C141.414 169.615 140.949 170.074 140.388 170.074ZM80.2429 168.021H139.361V135.153H80.2429V168.021Z" fill="#6A2EA0"/>
<path d="M109.799 157.257C109.587 157.257 109.375 157.195 109.197 157.065L78.6147 134.961C78.1562 134.626 78.0536 133.99 78.382 133.531C78.7173 133.073 79.3538 132.97 79.8123 133.299L109.792 154.971L139.772 133.299C140.231 132.97 140.874 133.073 141.203 133.531C141.538 133.99 141.428 134.633 140.97 134.961L110.388 157.065C110.223 157.188 110.011 157.257 109.799 157.257Z" fill="#6A2EA0"/>
<path d="M79.217 170.074C78.9502 170.074 78.6901 169.971 78.4848 169.773C78.0879 169.369 78.0879 168.719 78.4917 168.322L98.8775 148.135C99.2813 147.738 99.9314 147.738 100.328 148.141C100.725 148.545 100.725 149.195 100.321 149.592L79.9356 169.78C79.7371 169.978 79.4771 170.074 79.217 170.074Z" fill="#6A2EA0"/>
<path d="M140.388 170.074C140.128 170.074 139.868 169.978 139.663 169.78L119.27 149.592C118.866 149.195 118.866 148.545 119.263 148.141C119.66 147.738 120.31 147.738 120.714 148.135L141.107 168.322C141.51 168.719 141.51 169.369 141.113 169.773C140.915 169.971 140.648 170.074 140.388 170.074Z" fill="#6A2EA0"/>
<defs>
<linearGradient id="paint0_linear_3863_10486" x1="14.9403" y1="15.3448" x2="154.095" y2="154.5" gradientUnits="userSpaceOnUse">
<stop stop-color="#FF4C84"/>
<stop offset="0.2166" stop-color="#D35DA3"/>
<stop offset="0.593" stop-color="#8B79D4"/>
<stop offset="0.8638" stop-color="#5E8AF3"/>
<stop offset="1" stop-color="#4C90FF"/>
</linearGradient>
</defs>
</svg>
