<svg width="168" height="211" viewBox="0 0 168 211" fill="none" xmlns="http://www.w3.org/2000/svg">
<path d="M118.069 163.262C117.436 163.262 116.925 162.751 116.925 162.118V38.7775C116.925 29.7991 109.617 22.4912 100.639 22.4912H30.3218C21.3434 22.4912 14.0355 29.7991 14.0355 38.7775V67.9859C14.0355 68.619 13.5244 69.1301 12.8913 69.1301C12.2582 69.1301 11.7471 68.619 11.7471 67.9859V38.7775C11.7471 28.5328 20.0771 20.2028 30.3218 20.2028H100.646C110.891 20.2028 119.221 28.5328 119.221 38.7775V162.118C119.213 162.751 118.702 163.262 118.069 163.262Z" fill="#6A2EA0"/>
<path d="M108.046 158.777C108.046 168.16 100.441 175.757 91.0655 175.757C81.6904 175.757 74.0851 168.152 74.0851 158.777C74.0851 149.394 81.6904 141.797 91.0655 141.797C100.441 141.797 108.046 149.394 108.046 158.777ZM86.0538 15.6869H73.9173C73.8868 15.6869 73.8715 15.6564 73.8868 15.6335C74.909 14.1079 75.5192 12.2847 75.5726 10.3166C75.7252 4.4124 70.5685 -0.454404 64.6795 0.0338023C59.5228 0.460982 55.4646 4.78618 55.4646 10.0573C55.4646 12.1169 56.0825 14.0392 57.1505 15.6335C57.1657 15.6564 57.1505 15.6869 57.12 15.6869H46.1658C42.2755 15.6869 39.125 18.8374 39.125 22.7277C39.125 26.6181 42.2755 29.7686 46.1658 29.7686H86.0538C89.9442 29.7686 93.0946 26.6181 93.0946 22.7277C93.0946 18.8374 89.9442 15.6869 86.0538 15.6869ZM65.6864 15.0995C62.6886 15.0995 60.2628 12.6661 60.2628 9.67587C60.2628 6.68561 62.6962 4.25221 65.6864 4.25221C68.6843 4.25221 71.1101 6.68561 71.1101 9.67587C71.1101 12.6661 68.6843 15.0995 65.6864 15.0995ZM165.997 90.1917H155.326V179.396H165.997V90.1917Z" fill="url(#paint0_linear_3863_12628)"/>
<path d="M159.895 210.702C162.414 210.702 164.456 208.66 164.456 206.141C164.456 203.621 162.414 201.579 159.895 201.579C157.375 201.579 155.333 203.621 155.333 206.141C155.333 208.66 157.375 210.702 159.895 210.702Z" fill="#0061FF"/>
<path d="M84.04 69.4888H1.14423C0.51109 69.4888 0 68.9777 0 68.3445C0 67.7114 0.51109 67.2003 1.14423 67.2003H84.04C84.6732 67.2003 85.1843 67.7114 85.1843 68.3445C85.1843 68.9777 84.6732 69.4888 84.04 69.4888Z" fill="#6A2EA0"/>
<path d="M98.877 87.4379H40.5212C39.888 87.4379 39.377 86.9268 39.377 86.2936C39.377 85.6605 39.888 85.1494 40.5212 85.1494H98.8847C99.5178 85.1494 100.029 85.6605 100.029 86.2936C100.029 86.9268 99.5102 87.4379 98.877 87.4379Z" fill="#6A2EA0"/>
<path d="M84.0396 107.355H21.6179C20.9847 107.355 20.4736 106.844 20.4736 106.211C20.4736 105.578 20.9847 105.067 21.6179 105.067H84.0396C84.6727 105.067 85.1838 105.578 85.1838 106.211C85.1838 106.844 84.6727 107.355 84.0396 107.355Z" fill="#6A2EA0"/>
<path d="M65.4802 163.262H28.8419C11.9454 163.262 11.7471 146.732 11.7471 146.564V106.913C11.7471 106.28 12.2582 105.768 12.8913 105.768C13.5244 105.768 14.0355 106.28 14.0355 106.913V146.564C14.0355 147.152 14.2491 160.974 28.8419 160.974H65.4802C66.1134 160.974 66.6245 161.485 66.6245 162.118C66.6245 162.751 66.1134 163.262 65.4802 163.262Z" fill="#6A2EA0"/>
<path d="M165.998 180.54H155.326C154.693 180.54 154.182 180.029 154.182 179.396V145.733C154.182 145.1 154.693 144.589 155.326 144.589C155.959 144.589 156.47 145.1 156.47 145.733V178.252H164.854V91.3359H156.47V131.621C156.47 132.254 155.959 132.765 155.326 132.765C154.693 132.765 154.182 132.254 154.182 131.621V90.1917C154.182 89.5586 154.693 89.0475 155.326 89.0475H165.998C166.631 89.0475 167.142 89.5586 167.142 90.1917V179.396C167.142 180.029 166.631 180.54 165.998 180.54Z" fill="#6A2EA0"/>
<path d="M155.326 91.3359C155.212 91.3359 155.097 91.3206 154.983 91.2825C154.38 91.0918 154.044 90.451 154.235 89.8484L158.118 77.5212C158.476 76.3846 159.476 75.6599 160.658 75.6599C161.848 75.6599 162.84 76.3922 163.198 77.5212L167.081 89.8484C167.272 90.451 166.936 91.0918 166.333 91.2825C165.731 91.4732 165.09 91.1376 164.899 90.5349L161.017 78.2077C160.948 77.9865 160.78 77.9407 160.658 77.9407C160.528 77.9407 160.368 77.9865 160.3 78.2077L156.417 90.5349C156.264 91.0231 155.814 91.3359 155.326 91.3359Z" fill="#6A2EA0"/>
<path d="M65.4803 184.705C64.9463 184.705 64.4657 184.332 64.3589 183.782C64.2369 183.164 64.6336 182.562 65.2591 182.432C75.0918 180.464 83.8109 175.048 89.944 169.075C85.7942 163.369 85.3823 156.832 87.6174 152.217C89.6007 148.105 93.308 146.267 97.2747 147.419C100.09 148.235 101.569 150.455 101.432 153.651C101.249 157.953 98.1596 163.758 93.0105 169.235C94.0632 170.418 95.3219 171.547 96.7865 172.592C107.71 180.342 117.2 169.663 117.596 169.205C117.833 168.93 118.176 168.785 118.55 168.816C118.908 168.846 119.236 169.037 119.427 169.342C119.625 169.655 124.462 177.001 132.174 172.538C132.723 172.226 133.417 172.409 133.738 172.958C134.058 173.507 133.867 174.201 133.318 174.522C125.766 178.893 120.358 174.034 118.351 171.692C115.369 174.506 105.933 181.898 95.4592 174.461C93.8954 173.347 92.5452 172.142 91.401 170.875C85.0085 177.092 76.0072 182.623 65.7091 184.69C65.6252 184.705 65.5489 184.705 65.4803 184.705ZM94.9862 149.379C92.7893 149.379 90.867 150.737 89.6694 153.216C87.8081 157.068 88.1514 162.53 91.5612 167.42C96.1762 162.469 98.9758 157.32 99.1283 153.559C99.2199 151.423 98.396 150.134 96.6187 149.616C96.0694 149.455 95.5202 149.379 94.9862 149.379Z" fill="#6A2EA0"/>
<defs>
<linearGradient id="paint0_linear_3863_12628" x1="50.8454" y1="6.91766" x2="154.319" y2="186.14" gradientUnits="userSpaceOnUse">
<stop stop-color="#4C90FF"/>
<stop offset="1" stop-color="#FF4C84"/>
</linearGradient>
</defs>
</svg>
