<svg width="169" height="250" viewBox="0 0 169 250" fill="none" xmlns="http://www.w3.org/2000/svg">
<path d="M168.333 149.627L122.617 163.297C122.617 163.297 117.697 161.65 106.957 158.064C96.2161 154.479 94.2099 154.098 87.6268 155.982C81.1733 157.156 69.3419 173.58 69.3419 173.58C79.1747 174.381 86.5969 168.179 86.5969 168.179L116.065 182.787H168.341V149.627H168.333ZM41.3235 15.7446C27.7987 15.7446 16.8369 26.7064 16.8369 40.2312C16.8369 53.756 27.7987 64.7178 41.3235 64.7178C54.8483 64.7178 65.8101 53.756 65.8101 40.2312C65.8101 26.7064 54.8483 15.7446 41.3235 15.7446Z" fill="url(#paint0_linear_3863_12599)"/>
<path d="M55.2448 9.12335C57.7641 9.12335 59.8065 7.08101 59.8065 4.56167C59.8065 2.04233 57.7641 0 55.2448 0C52.7254 0 50.6831 2.04233 50.6831 4.56167C50.6831 7.08101 52.7254 9.12335 55.2448 9.12335Z" fill="#0061FF"/>
<path d="M147.699 249.878C150.218 249.878 152.261 247.835 152.261 245.316C152.261 242.796 150.218 240.754 147.699 240.754C145.18 240.754 143.137 242.796 143.137 245.316C143.137 247.835 145.18 249.878 147.699 249.878Z" fill="#0061FF"/>
<path d="M71.8591 174.724C69.7385 174.724 68.5332 174.312 68.3959 174.267C68.0298 174.137 67.7551 173.832 67.6712 173.45C67.5797 173.077 67.6865 172.68 67.9611 172.398L80.3112 159.475C80.54 159.239 80.7765 159.002 81.013 158.774C86.1086 153.937 93.569 152.374 100.495 154.685L122.808 162.138C127.469 161.939 150.018 154.113 158.424 151.077C159.019 150.863 159.675 151.168 159.889 151.763C160.102 152.358 159.797 153.014 159.202 153.228C157.936 153.686 128.14 164.434 122.633 164.434C122.51 164.434 122.388 164.411 122.266 164.373L99.7708 156.859C93.6529 154.815 87.0698 156.188 82.592 160.437C82.3784 160.635 82.1725 160.841 81.9741 161.054L71.1344 172.398C74.2696 172.558 80.9977 171.726 89.9685 164.182C90.4491 163.778 91.1738 163.839 91.5781 164.319C91.9824 164.8 91.9213 165.525 91.4408 165.929C82.5997 173.359 75.7266 174.724 71.8591 174.724Z" fill="#6A2EA0"/>
<path d="M122.617 187.219C122.449 187.219 122.274 187.181 122.106 187.097L86.0781 169.201C85.5136 168.919 85.2847 168.233 85.5594 167.668C85.8416 167.104 86.5281 166.875 87.0926 167.149L123.121 185.045C123.685 185.327 123.914 186.014 123.639 186.579C123.441 186.983 123.037 187.219 122.617 187.219Z" fill="#6A2EA0"/>
<path d="M113.166 193.764C112.991 193.764 112.823 193.726 112.655 193.642C105.874 190.255 89.0915 182.467 88.916 182.391C88.3439 182.124 88.0922 181.445 88.3592 180.873C88.6262 180.3 89.3051 180.049 89.8772 180.316C90.045 180.392 106.865 188.188 113.677 191.598C114.242 191.88 114.471 192.567 114.188 193.131C113.99 193.535 113.586 193.764 113.166 193.764Z" fill="#6A2EA0"/>
<path d="M102.425 199.348C102.25 199.348 102.082 199.31 101.914 199.226L83.2326 189.904C82.6681 189.622 82.4392 188.936 82.7215 188.371C83.0037 187.807 83.6902 187.578 84.2547 187.86L102.936 197.182C103.501 197.464 103.73 198.151 103.447 198.715C103.249 199.119 102.845 199.348 102.425 199.348Z" fill="#6A2EA0"/>
<path d="M90.2966 202.087C90.1287 202.087 89.9609 202.049 89.8007 201.972L74.14 194.413C73.5679 194.138 73.3314 193.452 73.606 192.887C73.8806 192.315 74.5672 192.078 75.1317 192.353L90.7924 199.913C91.3645 200.187 91.601 200.874 91.3264 201.438C91.128 201.85 90.7237 202.087 90.2966 202.087Z" fill="#6A2EA0"/>
<path d="M78.7627 204.833C78.7016 204.833 78.6406 204.825 78.5872 204.817C78.1753 204.756 68.4188 203.094 54.299 189.706C43.2838 179.263 1.67953 183.42 1.26761 183.466C0.634468 183.527 0.0776088 183.077 0.00895484 182.444C-0.0520709 181.818 0.397994 181.254 1.03114 181.185C2.78563 181.002 44.1 176.875 55.878 188.043C69.4105 200.874 78.8542 202.537 78.9457 202.552C79.5712 202.651 79.9908 203.238 79.8916 203.864C79.8001 204.436 79.3195 204.833 78.7627 204.833Z" fill="#6A2EA0"/>
<path d="M49.4551 163.412C49.3331 163.412 49.211 163.389 49.089 163.351L0.779463 147.011C0.176834 146.805 -0.143551 146.157 0.0624106 145.562C0.260744 144.959 0.909142 144.639 1.51177 144.845L49.3788 161.039C65.7261 153.358 85.8417 155.089 86.6961 155.166C87.3216 155.227 87.7869 155.783 87.7335 156.409C87.6801 157.042 87.1232 157.507 86.4901 157.446C86.2841 157.431 65.7871 155.669 49.9509 163.305C49.7908 163.374 49.6229 163.412 49.4551 163.412Z" fill="#6A2EA0"/>
<path d="M115.775 107.863H49.9281C44.5502 107.863 40.1792 103.492 40.1792 98.1141V48.8435C40.1792 43.4656 44.5502 39.0946 49.9281 39.0946H140.406C145.784 39.0946 150.155 43.4656 150.155 48.8435V73.475C150.155 74.1081 149.644 74.6192 149.011 74.6192C148.378 74.6192 147.867 74.1081 147.867 73.475V48.8435C147.867 44.7319 144.518 41.3831 140.406 41.3831H49.9281C45.8164 41.3831 42.4677 44.7319 42.4677 48.8435V98.1141C42.4677 102.226 45.8164 105.575 49.9281 105.575H115.775C116.408 105.575 116.919 106.086 116.919 106.719C116.919 107.352 116.408 107.863 115.775 107.863Z" fill="#6A2EA0"/>
<path d="M132.397 74.6192H115.775C115.142 74.6192 114.631 74.1081 114.631 73.4749V67.1206C114.631 66.4875 115.142 65.9764 115.775 65.9764C116.408 65.9764 116.919 66.4875 116.919 67.1206V72.3307H131.253V56.6166H121.595C120.962 56.6166 120.451 56.1055 120.451 55.4724C120.451 54.8392 120.962 54.3281 121.595 54.3281H132.397C133.03 54.3281 133.541 54.8392 133.541 55.4724V73.4749C133.541 74.1081 133.03 74.6192 132.397 74.6192Z" fill="#6A2EA0"/>
<path d="M124.082 69.6226C123.754 69.6226 123.441 69.4853 123.228 69.2336L114.921 59.8204C114.501 59.3474 114.547 58.6228 115.02 58.2032C115.493 57.7837 116.217 57.8294 116.637 58.3024L123.937 66.5637L135.006 48.9426C135.341 48.4086 136.051 48.2484 136.585 48.584C137.119 48.9197 137.279 49.6291 136.943 50.1631L125.059 69.081C124.868 69.3862 124.54 69.5845 124.181 69.615C124.143 69.6226 124.113 69.6226 124.082 69.6226Z" fill="#6A2EA0"/>
<path d="M41.6897 86.1302C37.5323 86.1302 33.3673 85.192 29.7134 83.323C21.8105 79.2725 13.5263 79.2419 8.08737 83.2239C7.57628 83.5977 6.85923 83.4909 6.48544 82.9798C6.11166 82.4687 6.21846 81.7516 6.72955 81.3778C12.8703 76.8772 22.0699 76.8391 30.7508 81.2787C37.4179 84.6961 45.9691 84.6961 52.5217 81.2787C60.0584 77.3501 69.2351 77.373 76.4743 81.3244C77.0312 81.6296 77.2295 82.3237 76.932 82.8806C76.6345 83.4375 75.9327 83.6434 75.3759 83.3383C68.8995 79.7988 60.3406 79.7912 53.5744 83.3154C49.9892 85.192 45.847 86.1302 41.6897 86.1302Z" fill="#6A2EA0"/>
<defs>
<linearGradient id="paint0_linear_3863_12599" x1="16.8344" y1="99.2659" x2="168.336" y2="99.2659" gradientUnits="userSpaceOnUse">
<stop stop-color="#4C90FF"/>
<stop offset="0.1262" stop-color="#5B8BF5"/>
<stop offset="0.3684" stop-color="#827CDA"/>
<stop offset="0.6985" stop-color="#C064AF"/>
<stop offset="1" stop-color="#FF4C84"/>
</linearGradient>
</defs>
</svg>
