<svg width="213" height="267" viewBox="0 0 213 267" fill="none" xmlns="http://www.w3.org/2000/svg">
  <path
    d="M150.069 206.652C149.269 206.652 148.623 206.006 148.623 205.205V49.284C148.623 37.9339 139.385 28.6957 128.035 28.6957H39.1433C27.7933 28.6957 18.5551 37.9339 18.5551 49.284V86.2078C18.5551 87.0082 17.909 87.6543 17.1086 87.6543C16.3082 87.6543 15.6621 87.0082 15.6621 86.2078V49.284C15.6621 36.3331 26.1925 25.8027 39.1433 25.8027H128.044C140.995 25.8027 151.525 36.3331 151.525 49.284V205.205C151.516 206.006 150.87 206.652 150.069 206.652Z"
    fill="#6A2EA0" />
  <path
    d="M137.398 200.982C137.398 212.843 127.784 222.448 115.932 222.448C104.081 222.448 94.4663 212.833 94.4663 200.982C94.4663 189.121 104.081 179.516 115.932 179.516C127.784 179.516 137.398 189.121 137.398 200.982ZM109.597 20.0943H94.2542C94.2156 20.0943 94.1963 20.0557 94.2156 20.0268C95.5078 18.0981 96.2793 15.7934 96.3468 13.3055C96.5396 5.84161 90.0208 -0.310763 82.5763 0.306403C76.0574 0.846423 70.9272 6.31413 70.9272 12.9776C70.9272 15.5813 71.7083 18.0113 73.0584 20.0268C73.0777 20.0557 73.0584 20.0943 73.0198 20.0943H59.1722C54.2541 20.0943 50.2715 24.0769 50.2715 28.995C50.2715 33.913 54.2541 37.8957 59.1722 37.8957H109.597C114.515 37.8957 118.497 33.913 118.497 28.995C118.497 24.0769 114.515 20.0943 109.597 20.0943ZM83.8492 19.3518C80.0594 19.3518 76.9928 16.2756 76.9928 12.4954C76.9928 8.71529 80.069 5.6391 83.8492 5.6391C87.6389 5.6391 90.7055 8.71529 90.7055 12.4954C90.7055 16.2756 87.6389 19.3518 83.8492 19.3518ZM210.657 114.28H197.167V227.047H210.657V114.28Z"
    fill="url(#paint0_linear_4445_15578)" />
  <path
    d="M202.942 266.623C206.127 266.623 208.709 264.041 208.709 260.857C208.709 257.672 206.127 255.09 202.942 255.09C199.758 255.09 197.176 257.672 197.176 260.857C197.176 264.041 199.758 266.623 202.942 266.623Z"
    fill="#0061FF" />
  <path
    d="M107.051 88.1078H2.25801C1.45762 88.1078 0.811523 87.4617 0.811523 86.6613C0.811523 85.8609 1.45762 85.2148 2.25801 85.2148H107.051C107.851 85.2148 108.497 85.8609 108.497 86.6613C108.497 87.4617 107.851 88.1078 107.051 88.1078Z"
    fill="#6A2EA0" />
  <path
    d="M125.807 110.798H52.0363C51.2359 110.798 50.5898 110.152 50.5898 109.352C50.5898 108.551 51.2359 107.905 52.0363 107.905H125.817C126.617 107.905 127.263 108.551 127.263 109.352C127.263 110.152 126.607 110.798 125.807 110.798Z"
    fill="#6A2EA0" />
  <path
    d="M107.05 135.977H28.1398C27.3395 135.977 26.6934 135.331 26.6934 134.53C26.6934 133.73 27.3395 133.084 28.1398 133.084H107.05C107.851 133.084 108.497 133.73 108.497 134.53C108.497 135.331 107.851 135.977 107.05 135.977Z"
    fill="#6A2EA0" />
  <path
    d="M83.5889 206.652H37.2726C15.9128 206.652 15.6621 185.755 15.6621 185.543V135.417C15.6621 134.617 16.3082 133.971 17.1086 133.971C17.909 133.971 18.5551 134.617 18.5551 135.417V185.543C18.5551 186.285 18.8251 203.759 37.2726 203.759H83.5889C84.3893 203.759 85.0354 204.405 85.0354 205.205C85.0354 206.006 84.3893 206.652 83.5889 206.652Z"
    fill="#6A2EA0" />
  <path
    d="M210.658 228.494H197.167C196.367 228.494 195.721 227.848 195.721 227.047V184.492C195.721 183.691 196.367 183.045 197.167 183.045C197.968 183.045 198.614 183.691 198.614 184.492V225.601H209.212V115.726H198.614V166.652C198.614 167.452 197.968 168.098 197.167 168.098C196.367 168.098 195.721 167.452 195.721 166.652V114.279C195.721 113.479 196.367 112.833 197.167 112.833H210.658C211.458 112.833 212.105 113.479 212.105 114.279V227.047C212.105 227.848 211.458 228.494 210.658 228.494Z"
    fill="#6A2EA0" />
  <path
    d="M197.167 115.726C197.023 115.726 196.878 115.707 196.733 115.658C195.972 115.417 195.547 114.607 195.788 113.846L200.697 98.2621C201.15 96.8253 202.413 95.9092 203.908 95.9092C205.412 95.9092 206.666 96.8349 207.119 98.2621L212.027 113.846C212.269 114.607 211.844 115.417 211.082 115.658C210.321 115.9 209.511 115.475 209.27 114.713L204.361 99.13C204.274 98.8504 204.062 98.7925 203.908 98.7925C203.744 98.7925 203.541 98.8504 203.455 99.13L198.546 114.713C198.353 115.331 197.784 115.726 197.167 115.726Z"
    fill="#6A2EA0" />
  <path
    d="M83.589 233.759C82.9139 233.759 82.3064 233.286 82.1714 232.592C82.0171 231.811 82.5186 231.049 83.3093 230.885C95.7394 228.397 106.762 221.55 114.515 214C109.269 206.787 108.748 198.522 111.574 192.688C114.081 187.491 118.767 185.167 123.782 186.623C127.34 187.655 129.211 190.461 129.037 194.501C128.806 199.94 124.9 207.278 118.391 214.202C119.722 215.697 121.313 217.124 123.165 218.445C136.974 228.243 148.97 214.742 149.471 214.164C149.77 213.817 150.204 213.633 150.677 213.672C151.13 213.71 151.545 213.952 151.786 214.337C152.036 214.733 158.15 224.019 167.9 218.378C168.594 217.982 169.471 218.214 169.876 218.908C170.281 219.602 170.04 220.48 169.346 220.885C159.799 226.411 152.962 220.268 150.426 217.307C146.656 220.866 134.727 230.21 121.487 220.808C119.51 219.4 117.803 217.876 116.357 216.276C108.276 224.135 96.8966 231.126 83.8783 233.739C83.7722 233.759 83.6757 233.759 83.589 233.759ZM120.889 189.101C118.112 189.101 115.682 190.818 114.168 193.952C111.815 198.821 112.249 205.726 116.559 211.907C122.393 205.649 125.932 199.14 126.125 194.385C126.241 191.685 125.199 190.056 122.953 189.4C122.258 189.197 121.564 189.101 120.889 189.101Z"
    fill="#6A2EA0" />
  <defs>
    <linearGradient id="paint0_linear_4445_15578" x1="65.0879" y1="9.00863" x2="195.895"
      y2="235.573" gradientUnits="userSpaceOnUse">
      <stop stop-color="#4C90FF" />
      <stop offset="1" stop-color="#FF4C84" />
    </linearGradient>
  </defs>
</svg>
